<svg xmlns="http://www.w3.org/2000/svg" width="140" height="32" viewBox="0 0 140 32"><rect width="100%" height="100%" fill="#DDDDDD"/><path fill="#999999" d="M44.315 20.305h2.08v1.48h-6.4v-1.48h2.35v-6.74q0-.4.02-.83l-1.66 1.39q-.15.12-.29.14-.14.03-.26.01-.13-.03-.22-.09-.1-.06-.15-.13l-.62-.85 3.53-3h1.62zm5.26-2.88h3.52v-3.78q0-.54.07-1.19zm5.24 0h1.45v1.14q0 .16-.1.28t-.3.12h-1.05v2.82h-1.72v-2.82h-4.88q-.2 0-.35-.13-.16-.12-.2-.31l-.2-1 5.48-7.32h1.87zm10.74-1.42q0 1.51-.32 2.62-.33 1.12-.9 1.85t-1.35 1.08q-.78.36-1.68.36-.91 0-1.68-.36-.77-.35-1.34-1.08t-.89-1.85q-.32-1.11-.32-2.62 0-1.52.32-2.64.32-1.11.89-1.84.57-.72 1.34-1.08t1.68-.36q.9 0 1.68.36t1.35 1.08q.57.73.9 1.84.32 1.12.32 2.64m-2.04 0q0-1.26-.18-2.08-.19-.83-.49-1.32-.31-.48-.71-.68t-.83-.2-.82.2q-.4.2-.7.68-.31.49-.49 1.32-.18.82-.18 2.08 0 1.25.18 2.08.18.82.49 1.31.3.49.7.68.39.2.82.2t.83-.2q.4-.19.71-.68.3-.49.49-1.31.18-.83.18-2.08m14.75 3.13-1.05 1.03-2.71-2.71-2.74 2.73-1.05-1.03 2.74-2.75-2.61-2.6 1.04-1.04 2.61 2.6 2.59-2.59 1.06 1.04-2.6 2.6zm6.65-5.51-1.04-.18q.12-.84.47-1.46.34-.63.86-1.05.51-.42 1.18-.63.67-.22 1.44-.22.8 0 1.44.23t1.1.63q.46.41.7.95.24.55.24 1.18 0 .55-.12.97t-.36.73q-.23.31-.57.53-.35.22-.78.36 1.04.33 1.55 1 .52.67.52 1.69 0 .86-.32 1.53-.32.66-.87 1.11-.54.45-1.26.69-.71.23-1.51.23-.88 0-1.52-.2-.65-.2-1.13-.59-.48-.4-.82-.96-.33-.57-.57-1.32l.87-.36q.34-.14.64-.07t.44.32q.14.28.31.55.18.28.42.49t.56.34.77.13q.51 0 .88-.16.38-.16.63-.43.25-.26.38-.59.12-.32.12-.65 0-.41-.09-.75t-.37-.58-.8-.38-1.4-.14v-1.4q.72-.01 1.2-.14t.77-.36q.28-.22.39-.54.12-.32.12-.71 0-.81-.46-1.24-.46-.42-1.22-.42-.35 0-.64.1-.3.1-.54.28-.23.18-.39.42t-.24.53q-.14.36-.36.48t-.62.06m12.26 6.32h2.97q.32 0 .5.18.19.18.19.48v1.18h-7.93v-.66q0-.2.08-.42t.27-.39l3.51-3.52q.44-.45.79-.86t.58-.81.35-.81q.13-.41.13-.87 0-.41-.12-.73-.12-.31-.34-.53t-.53-.32q-.31-.11-.69-.11-.35 0-.65.1t-.54.28q-.23.18-.39.42t-.24.53q-.13.36-.35.48t-.62.06l-1.04-.18q.12-.84.46-1.46.34-.63.86-1.05t1.18-.63q.67-.22 1.44-.22.8 0 1.46.24.67.24 1.14.67t.74 1.04q.26.61.26 1.35 0 .64-.19 1.18-.19.55-.5 1.04-.32.5-.74.96-.43.47-.89.95l-2.61 2.66q.38-.11.75-.17t.71-.06"/></svg>